<svg width="100" height="100" viewBox="0 0 100 100" fill="none" xmlns="http://www.w3.org/2000/svg">
<rect width="100" height="100" rx="10" fill="#FFA62B"/>
<path d="M33.5053 53.8L28.9933 58.504V67H21.2653V33.4H28.9933V49.096L43.8733 33.4H52.5133L38.5933 48.376L53.3293 67H44.2573L33.5053 53.8ZM67.1334 67.576C64.4774 67.576 61.9014 67.224 59.4054 66.52C56.9414 65.784 54.9574 64.84 53.4534 63.688L56.0934 57.832C57.5334 58.888 59.2454 59.736 61.2294 60.376C63.2134 61.016 65.1974 61.336 67.1814 61.336C69.3894 61.336 71.0214 61.016 72.0774 60.376C73.1334 59.704 73.6614 58.824 73.6614 57.736C73.6614 56.936 73.3414 56.28 72.7014 55.768C72.0934 55.224 71.2934 54.792 70.3014 54.472C69.3414 54.152 68.0294 53.8 66.3654 53.416C63.8054 52.808 61.7094 52.2 60.0774 51.592C58.4454 50.984 57.0374 50.008 55.8534 48.664C54.7014 47.32 54.1254 45.528 54.1254 43.288C54.1254 41.336 54.6534 39.576 55.7094 38.008C56.7654 36.408 58.3494 35.144 60.4614 34.216C62.6054 33.288 65.2134 32.824 68.2854 32.824C70.4294 32.824 72.5254 33.08 74.5734 33.592C76.6214 34.104 78.4134 34.84 79.9494 35.8L77.5494 41.704C74.4454 39.944 71.3414 39.064 68.2374 39.064C66.0614 39.064 64.4454 39.416 63.3894 40.12C62.3654 40.824 61.8534 41.752 61.8534 42.904C61.8534 44.056 62.4454 44.92 63.6294 45.496C64.8454 46.04 66.6854 46.584 69.1494 47.128C71.7094 47.736 73.8054 48.344 75.4374 48.952C77.0694 49.56 78.4614 50.52 79.6134 51.832C80.7974 53.144 81.3894 54.92 81.3894 57.16C81.3894 59.08 80.8454 60.84 79.7574 62.44C78.7014 64.008 77.1014 65.256 74.9574 66.184C72.8134 67.112 70.2054 67.576 67.1334 67.576Z" fill="white"/>
</svg>
